<svg width="30" height="15" viewBox="0 0 30 15" fill="none" xmlns="http://www.w3.org/2000/svg">
<circle cx="7.17742" cy="7.17742" r="7.17742" fill="black"/>
<path d="M21.0538 7.17742C21.0538 11.1414 17.8404 14.3548 13.8764 14.3548C9.91241 14.3548 6.69897 11.1414 6.69897 7.17742C6.69897 3.21344 9.91241 0 13.8764 0C17.8404 0 21.0538 3.21344 21.0538 7.17742Z" fill="white"/>
<circle cx="14.8333" cy="7.17742" r="7.17742" fill="black"/>
<path d="M28.7097 7.17742C28.7097 11.1414 25.4963 14.3548 21.5323 14.3548C17.5683 14.3548 14.3549 11.1414 14.3549 7.17742C14.3549 3.21344 17.5683 0 21.5323 0C25.4963 0 28.7097 3.21344 28.7097 7.17742Z" fill="white"/>
<circle cx="22.4892" cy="7.17742" r="7.17742" fill="black"/>
</svg>
